<svg xmlns="http://www.w3.org/2000/svg" viewBox="0 0 1200 600" width="1200" height="600" font-family="'Space Grotesk','PingFang SC',sans-serif">
  <defs>
    <radialGradient id="cg2" cx="80%" cy="110%" r="80%">
      <stop offset="0%" stop-color="#d9a441" stop-opacity="0.2"/>
      <stop offset="60%" stop-color="#d9a441" stop-opacity="0"/>
    </radialGradient>
  </defs>
  <rect width="1200" height="600" fill="#14241c"/>
  <rect width="1200" height="600" fill="url(#cg2)"/>
  <!-- node graph -->
  <g transform="translate(760,300)" font-family="'IBM Plex Mono',monospace" font-size="16" fill="#a7b8ac">
    <g stroke="#2f6b4f" stroke-width="2" opacity="0.7">
      <line x1="0" y1="-120" x2="0" y2="120"/>
      <line x1="0" y1="-120" x2="150" y2="-40"/>
      <line x1="0" y1="0" x2="150" y2="-40"/>
      <line x1="0" y1="0" x2="150" y2="80"/>
      <line x1="0" y1="120" x2="150" y2="80"/>
      <line x1="-150" y1="0" x2="0" y2="-120"/>
      <line x1="-150" y1="0" x2="0" y2="0"/>
      <line x1="-150" y1="0" x2="0" y2="120"/>
    </g>
    <g>
      <circle cx="-150" cy="0" r="34" fill="#1b2e24" stroke="#54b083" stroke-width="2"/><text x="-150" y="5" text-anchor="middle" fill="#f6f7f4">API</text>
      <circle cx="0" cy="-120" r="26" fill="#1b2e24" stroke="#d9a441" stroke-width="2"/><text x="0" y="-115" text-anchor="middle">TTS</text>
      <circle cx="0" cy="0" r="26" fill="#1b2e24" stroke="#d9a441" stroke-width="2"/><text x="0" y="5" text-anchor="middle">node</text>
      <circle cx="0" cy="120" r="26" fill="#1b2e24" stroke="#d9a441" stroke-width="2"/><text x="0" y="125" text-anchor="middle">lip</text>
      <circle cx="150" cy="-40" r="26" fill="#1b2e24" stroke="#54b083" stroke-width="2"/><text x="150" y="-35" text-anchor="middle">art</text>
      <circle cx="150" cy="80" r="26" fill="#1b2e24" stroke="#54b083" stroke-width="2"/><text x="150" y="85" text-anchor="middle">art</text>
    </g>
  </g>
  <text x="110" y="210" fill="#a7b8ac" font-size="22" letter-spacing="3" font-family="'IBM Plex Mono',monospace">// ARCHITECTURE</text>
  <text x="110" y="270" fill="#f6f7f4" font-size="48" font-weight="600">契约即事实源</text>
  <text x="110" y="332" fill="#f6f7f4" font-size="44" font-weight="600">Contract-first</text>
</svg>
